<svg xmlns="http://www.w3.org/2000/svg" width="24" height="22" viewBox="0 0 31 28" fill="none">
<path d="M22.8001 0.173584H5.07007C2.30864 0.173584 0.0700684 2.41216 0.0700684 5.17358V22.9036C0.0700684 25.665 2.30864 27.9036 5.07007 27.9036H22.8001C25.5615 27.9036 27.8001 25.665 27.8001 22.9036V5.17358C27.8001 2.41216 25.5615 0.173584 22.8001 0.173584Z" fill="#E7E2DC"/>
<path d="M12.8901 22.6136C12.2901 22.6136 11.7101 22.3835 11.2801 21.9535C8.33009 19.0635 4.78009 15.7535 4.75009 15.7235C3.82009 14.8535 3.7701 13.4035 4.6301 12.4735C5.4901 11.5435 6.9501 11.4935 7.8801 12.3535C7.9101 12.3835 10.1401 14.4636 12.5501 16.7736C20.8801 5.15355 26.2901 2.64354 26.9101 2.38354C28.0801 1.89354 29.4301 2.44355 29.9201 3.61355C30.4101 4.78355 29.8601 6.13353 28.6901 6.62353C28.6701 6.63353 23.2301 9.20353 14.7901 21.5935C14.4101 22.1535 13.7901 22.5236 13.1201 22.5836C13.0401 22.5836 12.9701 22.5935 12.8901 22.5935V22.6136Z" fill="#231F20"/>
</svg>